<svg xmlns="http://www.w3.org/2000/svg" version="1.1" xmlns:xlink="http://www.w3.org/1999/xlink" width="512" height="512" x="0" y="0" viewBox="0 0 495.376 495.376" style="enable-background:new 0 0 512 512" xml:space="preserve" class=""><circle r="247.688" cx="247.688" cy="247.688" fill="#f2f2e9" shape="circle"></circle><g transform="matrix(-0.9000000000000001,0,0,0.9000000000000001,470.60687105655677,24.768879699706986)"><path d="M478.816 193.753h-18.271s-23.879-3.133-52.654-36.398c-4.414-5.109-9.714-9.102-15.338-12.558 1.774-15.525 10.14-30.06 15.907-38.326a5.666 5.666 0 0 0 .494-5.621c-.85-1.822-2.59-3.081-4.593-3.275-23.872-2.363-54.046 21.748-71.267 37.792-27.624-20.711-63.966-33.405-103.933-33.405-75.375 0-138.262 44.797-152.951 104.378-1.145-.53-20.272-6.773-24.999-15.219 15.771 3.32 25.976-8.97 26.364-20.583-.122-6.25-1.707-9.964-6.095-14.523-3.935-4.051-11.217-5.781-15.171-5.068-13.672 1.079-23.015 10.246-23.015 28.13-.353-.081-.729-.162-1.071-.246-9.212-3.191-9.024-2.816-17.092-8.447-6.505-5.485-7.797-7.068-11.293-13.986-1.456-2.219-4.853-.154-3.544 2.164 3.902 7.324 4.374 9.171 11.314 15.849 7.452 6.28 12.41 8.825 22.651 11.914 7.742 30.429 39.077 37.034 39.272 37.1-.28 3.188-.582 6.356-.582 9.599 0 24.804 8.358 45.882 22.625 63.016l-.261-.066 29.632 94.849a9.947 9.947 0 0 0 9.492 6.986h17.373c5.495 0 9.949-4.454 9.949-9.952v-50.542c2.355.729 4.659 1.505 7.077 2.15l8.782 33.784a9.956 9.956 0 0 0 9.632 7.442h16.986a9.946 9.946 0 0 0 9.949-9.952v-24.207c17.309 1.244 41.823.408 73.27-2.54l12.102 46.531a9.956 9.956 0 0 0 9.624 7.441h16.994a9.949 9.949 0 0 0 9.952-9.952v-38.568l6.231 23.968a9.96 9.96 0 0 0 9.632 7.446h16.986a9.95 9.95 0 0 0 9.952-9.953v-45.393c6.161-2.378 12.002-4.951 17.074-7.884l-.066-.025c24.4-11.93 48.54-31.863 59.283-64.529h23.597c9.142 0 16.56-13.283 16.56-29.655 0-16.383-7.418-29.666-16.56-29.666zM47.671 182.346c-2.271-7.357-1.387-16.424 5.705-19.592 5.165-2.307 8.86-1.483 12.451 2.474 5.193 5.722 1.211 18.486-10.541 18.418-2.002-.1-4.704-.542-7.615-1.3zm436.946 50.678c-2.265 0-4.093-3.699-4.093-8.267 0-4.575 1.829-8.277 4.093-8.277 2.263 0 4.1 3.702 4.1 8.277 0 4.569-1.837 8.267-4.1 8.267z" fill="#f27405" opacity="1" data-original="#000000" class=""></path></g></svg>